# xmcd
#
# Track frame offsets:
#	183
#	11510
#	23793
#	34758
#	44160
#	53310
#	61905
#	71400
#	79218
#	91398
#	104010
#	115085
#	126480
#	134935
#	146745
#	157355
#	167638
#	176618
#	188630
#	194818
#
# Disc length: 2745 seconds
#
# Revision: 0
# Processed by: cddbd v1.4PL0 Copyright (c) Steve Scherf et al.
# Submitted via: MusicWizard 6.0.0
#
DISCID=2c0ab714
DTITLE=Johnny Cash - At His Mighty Best [CD 2/3)
DYEAR=1992
DGENRE=Country
TTITLE0=Oh Lonesome Me
TTITLE1=Goodnight Irene
TTITLE2=I Just Thought You'd Like To Know
TTITLE3=Blue Train
TTITLE4=Life Goes On
TTITLE5=Always Alone
TTITLE6=Luther's Boogie
TTITLE7=Come In Stranger
TTITLE8=Home Of The Blues
TTITLE9=Give My Love To Rose
TTITLE10=Belshazah
TTITLE11=Mean Eyed Cat
TTITLE12=Sugartime
TTITLE13=Wide Open Road
TTITLE14=There You Go
TTITLE15=Straight A's In Love
TTITLE16=Katy Too
TTITLE17=Thanks A Lot
TTITLE18=You Tell Me
TTITLE19=Don't Make Me Go
EXTD=(c)1992 Compilatoin Fnac Music\nupc 3383006620524
EXTT0=
EXTT1=
EXTT2=
EXTT3=
EXTT4=
EXTT5=
EXTT6=
EXTT7=
EXTT8=
EXTT9=
EXTT10=
EXTT11=
EXTT12=
EXTT13=
EXTT14=
EXTT15=
EXTT16=
EXTT17=
EXTT18=
EXTT19=
PLAYORDER=
